<svg xmlns="http://www.w3.org/2000/svg" viewBox="0 0 333333 333333" shape-rendering="geometricPrecision" text-rendering="geometricPrecision" image-rendering="optimizeQuality" fill-rule="evenodd" clip-rule="evenodd"><path d="M166667 333334C74755 333334-1 258590-1 166666S74730-2 166667-2c91911 0 166668 74730 166668 166668 0 91937-74744 166668-166668 166668zm140559-143870c-4872-1563-44089-13209-88670-6065 18620 51163 26169 92835 27671 101502 31896-21604 54687-55795 61000-95437h-2zm-84955 108455c-2148-12506-10352-55998-30329-107937-333 130-646 191-915 333-80329 27996-109185 83669-111709 88872 24152 18811 54504 30087 87378 30087 19734 0 38547-4041 55604-11331l-31-24h2zM60869 262043c3254-5543 42317-70185 115689-93935 1833-579 3709-1163 5604-1685-3581-8083-7480-16203-11522-24146-71022 21291-140038 20374-146288 20313-67 1441-67 2874-67 4356 0 36516 13878 69913 36583 95122v-26zM27349 137693c6380 61 65041 325 131646-17317-23555-41935-49022-77203-52794-82352-39850 18805-69667 55543-78833 99670h-20zM133337 28464c3914 5266 29811 40502 53126 83331 50648-18941 72061-47799 74608-51441-25130-22331-58207-35876-94398-35876-11455 61-22669 1439-33329 3974l-6 12h-2zm143562 48431c-3002 4035-26902 34646-79504 56128 3309 6766 6514 13669 9437 20646 1039 2478 2085 4872 3063 7350 47392-5911 94459 3587 99152 4559-333-33583-12378-64457-32167-88670l18-12 2-2z" fill="#ea4c89"/></svg>